<svg data-v-423bf9ae="" xmlns="http://www.w3.org/2000/svg" viewBox="0 0 514.0037083947268 187" class="iconAboveSlogan"><!----><!----><!----><g data-v-423bf9ae="" id="a11cd5a3-47c2-4bea-b8ec-ed8328af1cd0" fill="white" transform="matrix(5.639097562403148,0,0,5.639097562403148,-3.496243511885268,83.71428829053804)"><path d="M6.38 14.06C7.66 14.06 8.30 13.44 8.30 12.19L8.30 5.36C8.30 4.06 7.66 3.42 6.38 3.42L0.62 3.42L0.62 14.06ZM5.88 10.96C5.88 11.24 5.74 11.38 5.46 11.38L3.04 11.38L3.04 6.09L5.46 6.09C5.74 6.09 5.88 6.23 5.88 6.51ZM11.90 14.06L11.90 3.42L9.48 3.42L9.48 14.06ZM20.40 14.06L20.40 7.57L16.69 7.57L16.69 9.79L18.05 9.79L18.05 11.38L15.92 11.38C15.64 11.38 15.50 11.24 15.50 10.96L15.50 6.51C15.50 6.23 15.64 6.09 15.92 6.09L20.31 6.09L20.31 3.42L14.99 3.42C13.72 3.42 13.08 4.06 13.08 5.36L13.08 12.19C13.08 13.44 13.72 14.06 14.99 14.06ZM23.95 14.06L23.95 3.42L21.53 3.42L21.53 14.06ZM29.65 14.06L29.65 6.09L32.09 6.09L32.09 3.42L24.81 3.42L24.81 6.09L27.24 6.09L27.24 14.06ZM40.95 14.06L40.95 5.28C40.95 4.03 40.29 3.42 38.99 3.42L34.86 3.42C33.56 3.42 32.90 4.03 32.90 5.28L32.90 14.06L35.31 14.06L35.31 9.69L38.53 9.69L38.53 14.06ZM38.53 7.45L35.31 7.45L35.31 6.44C35.31 6.16 35.45 6.02 35.73 6.02L38.11 6.02C38.39 6.02 38.53 6.16 38.53 6.44ZM48.44 14.06L48.44 11.38L44.59 11.38L44.59 3.42L42.17 3.42L42.17 14.06ZM59.28 14.06C60.55 14.06 61.19 13.44 61.19 12.19L61.19 5.36C61.19 4.06 60.55 3.42 59.28 3.42L53.51 3.42L53.51 14.06ZM58.77 10.96C58.77 11.24 58.63 11.38 58.35 11.38L55.93 11.38L55.93 6.09L58.35 6.09C58.63 6.09 58.77 6.23 58.77 6.51ZM70.39 14.06L70.39 5.28C70.39 4.03 69.73 3.42 68.43 3.42L64.30 3.42C63.00 3.42 62.34 4.03 62.34 5.28L62.34 14.06L64.75 14.06L64.75 9.69L67.97 9.69L67.97 14.06ZM67.97 7.45L64.75 7.45L64.75 6.44C64.75 6.16 64.89 6.02 65.17 6.02L67.55 6.02C67.83 6.02 67.97 6.16 67.97 6.44ZM77.13 14.06C78.48 14.06 79.16 13.37 79.16 11.98L79.16 9.49C79.16 8.25 78.54 7.62 77.29 7.62L74.38 7.62C74.10 7.62 73.96 7.48 73.96 7.20L73.96 6.51C73.96 6.23 74.10 6.09 74.38 6.09L78.92 6.09L78.92 3.42L73.43 3.42C72.17 3.42 71.54 4.09 71.54 5.45L71.54 7.98C71.54 9.23 72.20 9.84 73.50 9.84L76.33 9.84C76.61 9.84 76.75 9.98 76.75 10.26L76.75 10.96C76.75 11.24 76.61 11.38 76.33 11.38L71.55 11.38L71.55 14.06ZM88.12 14.06L88.12 3.42L85.71 3.42L85.71 7.52L82.75 7.52L82.75 3.42L80.33 3.42L80.33 14.06L82.75 14.06L82.75 9.94L85.71 9.94L85.71 14.06ZM91.77 9.95L91.77 3.42L89.35 3.42L89.35 9.95ZM91.24 14.06C91.59 14.06 91.77 13.87 91.77 13.51L91.77 11.94C91.77 11.56 91.59 11.38 91.24 11.38L89.92 11.38C89.54 11.38 89.36 11.56 89.36 11.94L89.36 13.51C89.36 13.87 89.53 14.06 89.87 14.06Z"></path></g><!----><g data-v-423bf9ae="" id="0a29fcd3-8835-4112-abd0-e5607ace7993" transform="matrix(1.1249997854233198,0,0,1.1249997854233198,201.750010728834,-11.2499978542332)" stroke="none" fill="white"><path d="M79.98 33.5C79.89 26.032 73.972 20 66.667 20c-1.928 0-3.757.43-5.41 1.166C57.988 14.557 51.198 10 43.327 10c-11.042 0-19.993 8.952-19.993 20C15.97 30 10 35.97 10 43.333s5.97 13.333 13.333 13.333c0-7.334 5.999-13.333 13.333-13.333h26.667c7.334 0 13.334 5.999 13.334 13.333h1.666C84.772 56.667 90 51.448 90 45c0-5.875-4.362-10.69-10.02-11.5z"></path><path d="M67.552 57.604l-5.11-4.284-4.551 5.423c-1.419-.771-2.927-1.406-4.558-1.738V50h-6.667v7.002c-1.634.332-3.138.967-4.561 1.738l-4.551-5.423-5.107 4.287 4.551 5.42c-2.259 2.845-3.665 6.399-3.665 10.313C33.333 82.539 40.797 90.013 50 90c9.202 0 16.667-7.461 16.667-16.667 0-3.912-1.406-7.464-3.666-10.309l4.551-5.42zM53.079 74.609a3.328 3.328 0 0 1-5.436 1.084 3.333 3.333 0 0 1 0-4.714c.319-.322 1.081-.723 1.081-.723l8.347-3.99-3.992 8.343z"></path></g><!----><g data-v-423bf9ae="" id="cd149ef2-998d-41bf-93ff-31a265c8fe41" fill="white" transform="matrix(0.8696009190388087,0,0,0.8696009190388087,65.26816921489885,200.61002612373497)"><path d="M8.41 5.88L7.42 15.68L5.28 15.68L4.37 6.38L4.20 6.38L3.29 15.68L1.15 15.68L0.15 5.88L1.22 5.88L2.16 15.18L2.32 15.18L3.21 5.88L5.36 5.88L6.24 15.18L6.41 15.18L7.35 5.88L8.41 5.88ZM17.88 12.07L17.88 15.68L16.79 15.68L16.79 5.88L17.88 5.88L17.88 10.00L18.05 10.00L18.05 10.00Q18.37 9.32 18.95 8.93L18.95 8.93L18.95 8.93Q19.53 8.54 20.37 8.54L20.37 8.54L20.37 8.54Q21.50 8.54 22.21 9.29L22.21 9.29L22.21 9.29Q22.92 10.04 22.92 11.54L22.92 11.54L22.92 15.68L21.83 15.68L21.83 11.76L21.83 11.76Q21.83 10.67 21.34 10.12L21.34 10.12L21.34 10.12Q20.85 9.58 20.01 9.58L20.01 9.58L20.01 9.58Q19.01 9.58 18.45 10.25L18.45 10.25L18.45 10.25Q17.88 10.93 17.88 12.07L17.88 12.07ZM38.91 12.12L38.91 12.29L38.91 12.29Q38.91 13.16 38.62 13.82L38.62 13.82L38.62 13.82Q38.33 14.49 37.86 14.95L37.86 14.95L37.86 14.95Q37.38 15.40 36.74 15.64L36.74 15.64L36.74 15.64Q36.11 15.88 35.42 15.88L35.42 15.88L35.42 15.88Q34.72 15.88 34.09 15.64L34.09 15.64L34.09 15.64Q33.46 15.40 32.98 14.95L32.98 14.95L32.98 14.95Q32.51 14.49 32.22 13.82L32.22 13.82L32.22 13.82Q31.93 13.16 31.93 12.29L31.93 12.29L31.93 12.12L31.93 12.12Q31.93 11.27 32.22 10.61L32.22 10.61L32.22 10.61Q32.51 9.94 32.99 9.48L32.99 9.48L32.99 9.48Q33.47 9.02 34.10 8.78L34.10 8.78L34.10 8.78Q34.73 8.54 35.42 8.54L35.42 8.54L35.42 8.54Q36.11 8.54 36.74 8.78L36.74 8.78L36.74 8.78Q37.37 9.02 37.85 9.48L37.85 9.48L37.85 9.48Q38.33 9.94 38.62 10.61L38.62 10.61L38.62 10.61Q38.91 11.27 38.91 12.12L38.91 12.12ZM35.42 14.84L35.42 14.84L35.42 14.84Q35.92 14.84 36.35 14.66L36.35 14.66L36.35 14.66Q36.78 14.49 37.10 14.15L37.10 14.15L37.10 14.15Q37.42 13.82 37.60 13.35L37.60 13.35L37.60 13.35Q37.79 12.88 37.79 12.29L37.79 12.29L37.79 12.12L37.79 12.12Q37.79 11.56 37.60 11.09L37.60 11.09L37.60 11.09Q37.42 10.63 37.10 10.29L37.10 10.29L37.10 10.29Q36.78 9.95 36.34 9.77L36.34 9.77L36.34 9.77Q35.91 9.58 35.42 9.58L35.42 9.58L35.42 9.58Q34.93 9.58 34.50 9.77L34.50 9.77L34.50 9.77Q34.06 9.95 33.74 10.29L33.74 10.29L33.74 10.29Q33.42 10.63 33.24 11.09L33.24 11.09L33.24 11.09Q33.05 11.56 33.05 12.12L33.05 12.12L33.05 12.29L33.05 12.29Q33.05 12.88 33.24 13.35L33.24 13.35L33.24 13.35Q33.42 13.82 33.74 14.15L33.74 14.15L33.74 14.15Q34.06 14.49 34.49 14.66L34.49 14.66L34.49 14.66Q34.92 14.84 35.42 14.84ZM70.59 8.74L69.50 15.68L67.48 15.68L66.64 9.24L66.47 9.24L65.63 15.68L63.62 15.68L62.52 8.74L63.64 8.74L64.57 15.18L64.74 15.18L65.55 8.74L67.56 8.74L68.38 15.18L68.54 15.18L69.47 8.74L70.59 8.74ZM81.21 6.66L81.21 6.66L81.21 6.66Q81.21 6.26 81.50 5.97L81.50 5.97L81.50 5.97Q81.79 5.68 82.19 5.68L82.19 5.68L82.19 5.68Q82.60 5.68 82.89 5.97L82.89 5.97L82.89 5.97Q83.17 6.26 83.17 6.66L83.17 6.66L83.17 6.66Q83.17 7.07 82.89 7.36L82.89 7.36L82.89 7.36Q82.60 7.64 82.19 7.64L82.19 7.64L82.19 7.64Q81.79 7.64 81.50 7.36L81.50 7.36L81.50 7.36Q81.21 7.07 81.21 6.66ZM79.23 15.68L79.23 14.67L81.66 14.67L81.66 9.74L79.48 9.74L79.48 8.74L82.75 8.74L82.75 14.67L85.02 14.67L85.02 15.68L79.23 15.68ZM94.63 15.68L94.63 14.67L97.15 14.67L97.15 6.89L94.71 6.89L94.71 5.88L98.24 5.88L98.24 14.67L100.76 14.67L100.76 15.68L94.63 15.68ZM110.19 15.68L110.19 14.67L112.71 14.67L112.71 6.89L110.28 6.89L110.28 5.88L113.81 5.88L113.81 14.67L116.33 14.67L116.33 15.68L110.19 15.68ZM146.37 17.05L146.37 14.42L146.20 14.42L146.20 14.42Q145.87 15.09 145.32 15.48L145.32 15.48L145.32 15.48Q144.77 15.88 143.93 15.88L143.93 15.88L143.93 15.88Q143.36 15.88 142.88 15.69L142.88 15.69L142.88 15.69Q142.39 15.50 142.05 15.12L142.05 15.12L142.05 15.12Q141.71 14.74 141.52 14.18L141.52 14.18L141.52 14.18Q141.33 13.62 141.33 12.88L141.33 12.88L141.33 8.74L142.42 8.74L142.42 12.74L142.42 12.74Q142.42 13.83 142.87 14.34L142.87 14.34L142.87 14.34Q143.32 14.84 144.24 14.84L144.24 14.84L144.24 14.84Q145.24 14.84 145.80 14.16L145.80 14.16L145.80 14.16Q146.37 13.48 146.37 12.35L146.37 12.35L146.37 8.74L147.46 8.74L147.46 17.39L147.46 17.39Q147.46 17.86 147.16 18.17L147.16 18.17L147.16 18.17Q146.86 18.48 146.38 18.48L146.38 18.48L142.42 18.48L142.42 17.47L145.99 17.47L145.99 17.47Q146.37 17.47 146.37 17.05L146.37 17.05ZM163.45 12.12L163.45 12.29L163.45 12.29Q163.45 13.16 163.16 13.82L163.16 13.82L163.16 13.82Q162.88 14.49 162.40 14.95L162.40 14.95L162.40 14.95Q161.92 15.40 161.29 15.64L161.29 15.64L161.29 15.64Q160.65 15.88 159.96 15.88L159.96 15.88L159.96 15.88Q159.26 15.88 158.63 15.64L158.63 15.64L158.63 15.64Q158.00 15.40 157.53 14.95L157.53 14.95L157.53 14.95Q157.05 14.49 156.77 13.82L156.77 13.82L156.77 13.82Q156.48 13.16 156.48 12.29L156.48 12.29L156.48 12.12L156.48 12.12Q156.48 11.27 156.77 10.61L156.77 10.61L156.77 10.61Q157.05 9.94 157.53 9.48L157.53 9.48L157.53 9.48Q158.02 9.02 158.65 8.78L158.65 8.78L158.65 8.78Q159.28 8.54 159.96 8.54L159.96 8.54L159.96 8.54Q160.65 8.54 161.28 8.78L161.28 8.78L161.28 8.78Q161.91 9.02 162.39 9.48L162.39 9.48L162.39 9.48Q162.88 9.94 163.16 10.61L163.16 10.61L163.16 10.61Q163.45 11.27 163.45 12.12L163.45 12.12ZM159.96 14.84L159.96 14.84L159.96 14.84Q160.47 14.84 160.90 14.66L160.90 14.66L160.90 14.66Q161.32 14.49 161.64 14.15L161.64 14.15L161.64 14.15Q161.97 13.82 162.15 13.35L162.15 13.35L162.15 13.35Q162.33 12.88 162.33 12.29L162.33 12.29L162.33 12.12L162.33 12.12Q162.33 11.56 162.15 11.09L162.15 11.09L162.15 11.09Q161.97 10.63 161.64 10.29L161.64 10.29L161.64 10.29Q161.32 9.95 160.89 9.77L160.89 9.77L160.89 9.77Q160.45 9.58 159.96 9.58L159.96 9.58L159.96 9.58Q159.47 9.58 159.04 9.77L159.04 9.77L159.04 9.77Q158.61 9.95 158.28 10.29L158.28 10.29L158.28 10.29Q157.96 10.63 157.78 11.09L157.78 11.09L157.78 11.09Q157.60 11.56 157.60 12.12L157.60 12.12L157.60 12.29L157.60 12.29Q157.60 12.88 157.78 13.35L157.78 13.35L157.78 13.35Q157.96 13.82 158.28 14.15L158.28 14.15L158.28 14.15Q158.61 14.49 159.03 14.66L159.03 14.66L159.03 14.66Q159.46 14.84 159.96 14.84ZM177.42 12.35L177.42 8.74L178.51 8.74L178.51 15.68L177.42 15.68L177.42 14.42L177.25 14.42L177.25 14.42Q176.92 15.09 176.37 15.48L176.37 15.48L176.37 15.48Q175.83 15.88 174.99 15.88L174.99 15.88L174.99 15.88Q174.41 15.88 173.93 15.69L173.93 15.69L173.93 15.69Q173.45 15.50 173.10 15.12L173.10 15.12L173.10 15.12Q172.76 14.74 172.57 14.18L172.57 14.18L172.57 14.18Q172.38 13.62 172.38 12.88L172.38 12.88L172.38 8.74L173.47 8.74L173.47 12.74L173.47 12.74Q173.47 13.83 173.92 14.34L173.92 14.34L173.92 14.34Q174.37 14.84 175.29 14.84L175.29 14.84L175.29 14.84Q176.29 14.84 176.86 14.16L176.86 14.16L176.86 14.16Q177.42 13.48 177.42 12.35L177.42 12.35ZM204.44 14.62L204.44 15.68L203.35 15.68L203.35 5.88L204.44 5.88L204.44 9.83L204.61 9.83L204.61 9.83Q204.97 9.20 205.62 8.87L205.62 8.87L205.62 8.87Q206.26 8.54 207.02 8.54L207.02 8.54L207.02 8.54Q207.66 8.54 208.24 8.78L208.24 8.78L208.24 8.78Q208.81 9.02 209.25 9.46L209.25 9.46L209.25 9.46Q209.69 9.91 209.95 10.57L209.95 10.57L209.95 10.57Q210.21 11.23 210.21 12.07L210.21 12.07L210.21 12.35L210.21 12.35Q210.21 13.20 209.96 13.86L209.96 13.86L209.96 13.86Q209.71 14.52 209.27 14.97L209.27 14.97L209.27 14.97Q208.82 15.41 208.24 15.64L208.24 15.64L208.24 15.64Q207.65 15.88 206.99 15.88L206.99 15.88L206.99 15.88Q206.65 15.88 206.30 15.80L206.30 15.80L206.30 15.80Q205.95 15.72 205.64 15.56L205.64 15.56L205.64 15.56Q205.32 15.40 205.06 15.17L205.06 15.17L205.06 15.17Q204.79 14.94 204.61 14.62L204.61 14.62L204.44 14.62ZM206.77 14.84L206.77 14.84L206.77 14.84Q207.27 14.84 207.69 14.66L207.69 14.66L207.69 14.66Q208.11 14.49 208.43 14.17L208.43 14.17L208.43 14.17Q208.74 13.85 208.92 13.38L208.92 13.38L208.92 13.38Q209.09 12.92 209.09 12.35L209.09 12.35L209.09 12.07L209.09 12.07Q209.09 11.51 208.92 11.05L208.92 11.05L208.92 11.05Q208.74 10.60 208.43 10.27L208.43 10.27L208.43 10.27Q208.11 9.94 207.68 9.76L207.68 9.76L207.68 9.76Q207.26 9.58 206.77 9.58L206.77 9.58L206.77 9.58Q206.28 9.58 205.86 9.77L205.86 9.77L205.86 9.77Q205.44 9.95 205.12 10.29L205.12 10.29L205.12 10.29Q204.81 10.63 204.62 11.09L204.62 11.09L204.62 11.09Q204.44 11.56 204.44 12.12L204.44 12.12L204.44 12.29L204.44 12.29Q204.44 12.87 204.62 13.33L204.62 13.33L204.62 13.33Q204.81 13.80 205.12 14.14L205.12 14.14L205.12 14.14Q205.44 14.48 205.86 14.66L205.86 14.66L205.86 14.66Q206.28 14.84 206.77 14.84ZM225.57 12.54L219.97 12.54L219.97 12.54Q220.01 13.58 220.61 14.21L220.61 14.21L220.61 14.21Q221.21 14.84 222.29 14.84L222.29 14.84L222.29 14.84Q222.78 14.84 223.15 14.73L223.15 14.73L223.15 14.73Q223.51 14.62 223.77 14.42L223.77 14.42L223.77 14.42Q224.03 14.22 224.19 13.96L224.19 13.96L224.19 13.96Q224.35 13.71 224.45 13.41L224.45 13.41L225.48 13.69L225.48 13.69Q225.19 14.66 224.40 15.27L224.40 15.27L224.40 15.27Q223.61 15.88 222.26 15.88L222.26 15.88L222.26 15.88Q221.52 15.88 220.90 15.62L220.90 15.62L220.90 15.62Q220.28 15.36 219.83 14.88L219.83 14.88L219.83 14.88Q219.38 14.41 219.13 13.75L219.13 13.75L219.13 13.75Q218.88 13.09 218.88 12.29L218.88 12.29L218.88 11.96L218.88 11.96Q218.88 11.23 219.14 10.60L219.14 10.60L219.14 10.60Q219.39 9.97 219.86 9.51L219.86 9.51L219.86 9.51Q220.32 9.06 220.94 8.80L220.94 8.80L220.94 8.80Q221.56 8.54 222.29 8.54L222.29 8.54L222.29 8.54Q223.15 8.54 223.77 8.86L223.77 8.86L223.77 8.86Q224.39 9.17 224.79 9.63L224.79 9.63L224.79 9.63Q225.19 10.09 225.38 10.64L225.38 10.64L225.38 10.64Q225.57 11.19 225.57 11.65L225.57 11.65L225.57 12.54ZM222.29 9.58L222.29 9.58L222.29 9.58Q221.83 9.58 221.43 9.72L221.43 9.72L221.43 9.72Q221.03 9.87 220.73 10.14L220.73 10.14L220.73 10.14Q220.43 10.40 220.24 10.76L220.24 10.76L220.24 10.76Q220.05 11.12 220.00 11.54L220.00 11.54L224.48 11.54L224.48 11.54Q224.45 11.09 224.26 10.72L224.26 10.72L224.26 10.72Q224.07 10.36 223.77 10.11L223.77 10.11L223.77 10.11Q223.47 9.86 223.08 9.72L223.08 9.72L223.08 9.72Q222.70 9.58 222.29 9.58ZM249.91 9.74L249.91 8.74L252.43 8.74L252.43 9.66L252.60 9.66L252.60 9.66Q252.87 9.09 253.36 8.81L253.36 8.81L253.36 8.81Q253.85 8.54 254.48 8.54L254.48 8.54L254.48 8.54Q255.53 8.54 256.17 9.23L256.17 9.23L256.17 9.23Q256.82 9.91 256.86 11.23L256.86 11.23L255.71 11.40L255.71 11.40Q255.71 10.43 255.25 10.00L255.25 10.00L255.25 10.00Q254.79 9.58 254.11 9.58L254.11 9.58L254.11 9.58Q253.68 9.58 253.37 9.74L253.37 9.74L253.37 9.74Q253.05 9.91 252.84 10.21L252.84 10.21L252.84 10.21Q252.63 10.50 252.53 10.89L252.53 10.89L252.53 10.89Q252.43 11.28 252.43 11.73L252.43 11.73L252.43 14.67L254.20 14.67L254.20 15.68L249.75 15.68L249.75 14.67L251.34 14.67L251.34 9.74L249.91 9.74ZM270.83 12.35L270.83 8.74L271.92 8.74L271.92 15.68L270.83 15.68L270.83 14.42L270.66 14.42L270.66 14.42Q270.33 15.09 269.78 15.48L269.78 15.48L269.78 15.48Q269.23 15.88 268.39 15.88L268.39 15.88L268.39 15.88Q267.82 15.88 267.34 15.69L267.34 15.69L267.34 15.69Q266.85 15.50 266.51 15.12L266.51 15.12L266.51 15.12Q266.17 14.74 265.98 14.18L265.98 14.18L265.98 14.18Q265.79 13.62 265.79 12.88L265.79 12.88L265.79 8.74L266.88 8.74L266.88 12.74L266.88 12.74Q266.88 13.83 267.33 14.34L267.33 14.34L267.33 14.34Q267.78 14.84 268.70 14.84L268.70 14.84L268.70 14.84Q269.70 14.84 270.26 14.16L270.26 14.16L270.26 14.16Q270.83 13.48 270.83 12.35L270.83 12.35ZM282.53 12.07L282.53 15.68L281.44 15.68L281.44 8.74L282.53 8.74L282.53 9.91L282.70 9.91L282.70 9.91Q283.35 8.54 284.94 8.54L284.94 8.54L284.94 8.54Q286.15 8.54 286.86 9.29L286.86 9.29L286.86 9.29Q287.57 10.04 287.57 11.54L287.57 11.54L287.57 15.68L286.48 15.68L286.48 11.76L286.48 11.76Q286.48 10.67 285.99 10.12L285.99 10.12L285.99 10.12Q285.50 9.58 284.66 9.58L284.66 9.58L284.66 9.58Q283.67 9.58 283.10 10.25L283.10 10.25L283.10 10.25Q282.53 10.93 282.53 12.07L282.53 12.07ZM298.10 12.07L298.10 15.68L297.01 15.68L297.01 8.74L298.10 8.74L298.10 9.91L298.27 9.91L298.27 9.91Q298.91 8.54 300.51 8.54L300.51 8.54L300.51 8.54Q301.71 8.54 302.43 9.29L302.43 9.29L302.43 9.29Q303.14 10.04 303.14 11.54L303.14 11.54L303.14 15.68L302.05 15.68L302.05 11.76L302.05 11.76Q302.05 10.67 301.56 10.12L301.56 10.12L301.56 10.12Q301.07 9.58 300.23 9.58L300.23 9.58L300.23 9.58Q299.24 9.58 298.67 10.25L298.67 10.25L298.67 10.25Q298.10 10.93 298.10 12.07L298.10 12.07ZM314.73 6.66L314.73 6.66L314.73 6.66Q314.73 6.26 315.02 5.97L315.02 5.97L315.02 5.97Q315.31 5.68 315.71 5.68L315.71 5.68L315.71 5.68Q316.12 5.68 316.41 5.97L316.41 5.97L316.41 5.97Q316.69 6.26 316.69 6.66L316.69 6.66L316.69 6.66Q316.69 7.07 316.41 7.36L316.41 7.36L316.41 7.36Q316.12 7.64 315.71 7.64L315.71 7.64L315.71 7.64Q315.31 7.64 315.02 7.36L315.02 7.36L315.02 7.36Q314.73 7.07 314.73 6.66ZM312.75 15.68L312.75 14.67L315.18 14.67L315.18 9.74L313.00 9.74L313.00 8.74L316.27 8.74L316.27 14.67L318.54 14.67L318.54 15.68L312.75 15.68ZM329.24 12.07L329.24 15.68L328.15 15.68L328.15 8.74L329.24 8.74L329.24 9.91L329.41 9.91L329.41 9.91Q330.05 8.54 331.65 8.54L331.65 8.54L331.65 8.54Q332.85 8.54 333.56 9.29L333.56 9.29L333.56 9.29Q334.28 10.04 334.28 11.54L334.28 11.54L334.28 15.68L333.19 15.68L333.19 11.76L333.19 11.76Q333.19 10.67 332.70 10.12L332.70 10.12L332.70 10.12Q332.21 9.58 331.37 9.58L331.37 9.58L331.37 9.58Q330.37 9.58 329.81 10.25L329.81 10.25L329.81 10.25Q329.24 10.93 329.24 12.07L329.24 12.07ZM348.99 17.05L348.99 14.62L348.82 14.62L348.82 14.62Q348.49 15.25 347.91 15.56L347.91 15.56L347.91 15.56Q347.33 15.88 346.64 15.88L346.64 15.88L346.64 15.88Q345.94 15.88 345.32 15.64L345.32 15.64L345.32 15.64Q344.71 15.40 344.24 14.95L344.24 14.95L344.24 14.95Q343.77 14.50 343.50 13.84L343.50 13.84L343.50 13.84Q343.22 13.17 343.22 12.32L343.22 12.32L343.22 12.10L343.22 12.10Q343.22 11.26 343.50 10.59L343.50 10.59L343.50 10.59Q343.78 9.93 344.25 9.47L344.25 9.47L344.25 9.47Q344.71 9.02 345.32 8.78L345.32 8.78L345.32 8.78Q345.94 8.54 346.61 8.54L346.61 8.54L346.61 8.54Q347.37 8.54 347.94 8.87L347.94 8.87L347.94 8.87Q348.50 9.20 348.82 9.83L348.82 9.83L348.99 9.83L348.99 8.74L350.08 8.74L350.08 17.39L350.08 17.39Q350.08 17.86 349.78 18.17L349.78 18.17L349.78 18.17Q349.48 18.48 349.01 18.48L349.01 18.48L344.48 18.48L344.48 17.47L348.61 17.47L348.61 17.47Q348.99 17.47 348.99 17.05L348.99 17.05ZM346.67 14.84L346.67 14.84L346.67 14.84Q347.16 14.84 347.58 14.66L347.58 14.66L347.58 14.66Q348.00 14.48 348.31 14.14L348.31 14.14L348.31 14.14Q348.63 13.80 348.81 13.33L348.81 13.33L348.81 13.33Q348.99 12.87 348.99 12.29L348.99 12.29L348.99 12.12L348.99 12.12Q348.99 11.56 348.81 11.09L348.81 11.09L348.81 11.09Q348.63 10.63 348.31 10.29L348.31 10.29L348.31 10.29Q348.00 9.95 347.57 9.77L347.57 9.77L347.57 9.77Q347.14 9.58 346.67 9.58L346.67 9.58L346.67 9.58Q346.18 9.58 345.75 9.76L345.75 9.76L345.75 9.76Q345.32 9.94 345.01 10.28L345.01 10.28L345.01 10.28Q344.69 10.61 344.52 11.07L344.52 11.07L344.52 11.07Q344.34 11.54 344.34 12.10L344.34 12.10L344.34 12.32L344.34 12.32Q344.34 12.91 344.52 13.37L344.52 13.37L344.52 13.37Q344.69 13.83 345.01 14.16L345.01 14.16L345.01 14.16Q345.32 14.49 345.74 14.66L345.74 14.66L345.74 14.66Q346.16 14.84 346.67 14.84ZM381.95 8.74L380.86 15.68L378.84 15.68L378.00 9.24L377.83 9.24L376.99 15.68L374.98 15.68L373.88 8.74L375.00 8.74L375.93 15.18L376.10 15.18L376.91 8.74L378.92 8.74L379.74 15.18L379.90 15.18L380.83 8.74L381.95 8.74ZM392.57 6.66L392.57 6.66L392.57 6.66Q392.57 6.26 392.86 5.97L392.86 5.97L392.86 5.97Q393.15 5.68 393.55 5.68L393.55 5.68L393.55 5.68Q393.96 5.68 394.25 5.97L394.25 5.97L394.25 5.97Q394.53 6.26 394.53 6.66L394.53 6.66L394.53 6.66Q394.53 7.07 394.25 7.36L394.25 7.36L394.25 7.36Q393.96 7.64 393.55 7.64L393.55 7.64L393.55 7.64Q393.15 7.64 392.86 7.36L392.86 7.36L392.86 7.36Q392.57 7.07 392.57 6.66ZM390.59 15.68L390.59 14.67L393.02 14.67L393.02 9.74L390.84 9.74L390.84 8.74L394.11 8.74L394.11 14.67L396.38 14.67L396.38 15.68L390.59 15.68ZM405.75 9.74L405.75 8.74L407.93 8.74L407.93 5.88L409.02 5.88L409.02 8.74L411.71 8.74L411.71 9.74L409.02 9.74L409.02 14.25L409.02 14.25Q409.02 14.67 409.40 14.67L409.40 14.67L411.38 14.67L411.38 15.68L409.01 15.68L409.01 15.68Q408.53 15.68 408.23 15.37L408.23 15.37L408.23 15.37Q407.93 15.06 407.93 14.59L407.93 14.59L407.93 9.74L405.75 9.74ZM422.65 12.07L422.65 15.68L421.55 15.68L421.55 5.88L422.65 5.88L422.65 10.00L422.81 10.00L422.81 10.00Q423.14 9.32 423.72 8.93L423.72 8.93L423.72 8.93Q424.30 8.54 425.14 8.54L425.14 8.54L425.14 8.54Q426.27 8.54 426.98 9.29L426.98 9.29L426.98 9.29Q427.69 10.04 427.69 11.54L427.69 11.54L427.69 15.68L426.59 15.68L426.59 11.76L426.59 11.76Q426.59 10.67 426.10 10.12L426.10 10.12L426.10 10.12Q425.61 9.58 424.77 9.58L424.77 9.58L424.77 9.58Q423.78 9.58 423.21 10.25L423.21 10.25L423.21 10.25Q422.65 10.93 422.65 12.07L422.65 12.07ZM440.47 10.56L440.83 10.56L440.83 10.56Q441.46 10.56 441.87 10.09L441.87 10.09L441.87 10.09Q442.29 9.63 442.29 8.88L442.29 8.88L442.29 8.79L442.29 8.79Q442.29 8.37 442.14 8.01L442.14 8.01L442.14 8.01Q441.99 7.64 441.73 7.37L441.73 7.37L441.73 7.37Q441.46 7.10 441.08 6.94L441.08 6.94L441.08 6.94Q440.71 6.78 440.24 6.78L440.24 6.78L440.24 6.78Q439.24 6.78 438.66 7.39L438.66 7.39L438.66 7.39Q438.09 8.01 438.09 9.02L438.09 9.02L438.09 9.60L436.91 9.60L436.91 8.93L436.91 8.93Q436.91 8.29 437.13 7.70L437.13 7.70L437.13 7.70Q437.35 7.11 437.77 6.66L437.77 6.66L437.77 6.66Q438.19 6.22 438.82 5.95L438.82 5.95L438.82 5.95Q439.45 5.68 440.27 5.68L440.27 5.68L440.27 5.68Q440.97 5.68 441.56 5.92L441.56 5.92L441.56 5.92Q442.15 6.16 442.57 6.57L442.57 6.57L442.57 6.57Q442.99 6.99 443.23 7.53L443.23 7.53L443.23 7.53Q443.46 8.06 443.46 8.67L443.46 8.67L443.46 8.92L443.46 8.92Q443.46 9.46 443.27 9.96L443.27 9.96L443.27 9.96Q443.09 10.46 442.75 10.82L442.75 10.82L442.75 10.82Q442.41 11.19 441.96 11.40L441.96 11.40L441.96 11.40Q441.50 11.62 440.97 11.62L440.97 11.62L440.78 11.62L440.78 11.62Q440.38 11.62 440.38 12.04L440.38 12.04L440.38 13.08L439.26 13.08L439.26 11.76L439.26 11.76Q439.26 11.23 439.60 10.89L439.60 10.89L439.60 10.89Q439.94 10.56 440.47 10.56L440.47 10.56ZM438.86 14.90L438.86 14.90L438.86 14.90Q438.86 14.49 439.14 14.20L439.14 14.20L439.14 14.20Q439.43 13.92 439.84 13.92L439.84 13.92L439.84 13.92Q440.24 13.92 440.53 14.20L440.53 14.20L440.53 14.20Q440.82 14.49 440.82 14.90L440.82 14.90L440.82 14.90Q440.82 15.30 440.53 15.59L440.53 15.59L440.53 15.59Q440.24 15.88 439.84 15.88L439.84 15.88L439.84 15.88Q439.43 15.88 439.14 15.59L439.14 15.59L439.14 15.59Q438.86 15.30 438.86 14.90Z"></path></g></svg>