<svg data-v-423bf9ae="" xmlns="http://www.w3.org/2000/svg" viewBox="0 0 514.0037083947268 60" class="font"><!----><!----><!----><g data-v-423bf9ae="" id="5eedd4d9-a0c6-4602-9c29-a82fe07f913f" fill="white" transform="matrix(5.639097562403148,0,0,5.639097562403148,-3.496243511885268,-19.285713616810604)"><path d="M6.38 14.06C7.66 14.06 8.30 13.44 8.30 12.19L8.30 5.36C8.30 4.06 7.66 3.42 6.38 3.42L0.62 3.42L0.62 14.06ZM5.88 10.96C5.88 11.24 5.74 11.38 5.46 11.38L3.04 11.38L3.04 6.09L5.46 6.09C5.74 6.09 5.88 6.23 5.88 6.51ZM11.90 14.06L11.90 3.42L9.48 3.42L9.48 14.06ZM20.40 14.06L20.40 7.57L16.69 7.57L16.69 9.79L18.05 9.79L18.05 11.38L15.92 11.38C15.64 11.38 15.50 11.24 15.50 10.96L15.50 6.51C15.50 6.23 15.64 6.09 15.92 6.09L20.31 6.09L20.31 3.42L14.99 3.42C13.72 3.42 13.08 4.06 13.08 5.36L13.08 12.19C13.08 13.44 13.72 14.06 14.99 14.06ZM23.95 14.06L23.95 3.42L21.53 3.42L21.53 14.06ZM29.65 14.06L29.65 6.09L32.09 6.09L32.09 3.42L24.81 3.42L24.81 6.09L27.24 6.09L27.24 14.06ZM40.95 14.06L40.95 5.28C40.95 4.03 40.29 3.42 38.99 3.42L34.86 3.42C33.56 3.42 32.90 4.03 32.90 5.28L32.90 14.06L35.31 14.06L35.31 9.69L38.53 9.69L38.53 14.06ZM38.53 7.45L35.31 7.45L35.31 6.44C35.31 6.16 35.45 6.02 35.73 6.02L38.11 6.02C38.39 6.02 38.53 6.16 38.53 6.44ZM48.44 14.06L48.44 11.38L44.59 11.38L44.59 3.42L42.17 3.42L42.17 14.06ZM59.28 14.06C60.55 14.06 61.19 13.44 61.19 12.19L61.19 5.36C61.19 4.06 60.55 3.42 59.28 3.42L53.51 3.42L53.51 14.06ZM58.77 10.96C58.77 11.24 58.63 11.38 58.35 11.38L55.93 11.38L55.93 6.09L58.35 6.09C58.63 6.09 58.77 6.23 58.77 6.51ZM70.39 14.06L70.39 5.28C70.39 4.03 69.73 3.42 68.43 3.42L64.30 3.42C63.00 3.42 62.34 4.03 62.34 5.28L62.34 14.06L64.75 14.06L64.75 9.69L67.97 9.69L67.97 14.06ZM67.97 7.45L64.75 7.45L64.75 6.44C64.75 6.16 64.89 6.02 65.17 6.02L67.55 6.02C67.83 6.02 67.97 6.16 67.97 6.44ZM77.13 14.06C78.48 14.06 79.16 13.37 79.16 11.98L79.16 9.49C79.16 8.25 78.54 7.62 77.29 7.62L74.38 7.62C74.10 7.62 73.96 7.48 73.96 7.20L73.96 6.51C73.96 6.23 74.10 6.09 74.38 6.09L78.92 6.09L78.92 3.42L73.43 3.42C72.17 3.42 71.54 4.09 71.54 5.45L71.54 7.98C71.54 9.23 72.20 9.84 73.50 9.84L76.33 9.84C76.61 9.84 76.75 9.98 76.75 10.26L76.75 10.96C76.75 11.24 76.61 11.38 76.33 11.38L71.55 11.38L71.55 14.06ZM88.12 14.06L88.12 3.42L85.71 3.42L85.71 7.52L82.75 7.52L82.75 3.42L80.33 3.42L80.33 14.06L82.75 14.06L82.75 9.94L85.71 9.94L85.71 14.06ZM91.77 9.95L91.77 3.42L89.35 3.42L89.35 9.95ZM91.24 14.06C91.59 14.06 91.77 13.87 91.77 13.51L91.77 11.94C91.77 11.56 91.59 11.38 91.24 11.38L89.92 11.38C89.54 11.38 89.36 11.56 89.36 11.94L89.36 13.51C89.36 13.87 89.53 14.06 89.87 14.06Z"></path></g><!----><!----></svg>